<svg width="40" height="40" viewBox="0 0 40 40" fill="none" xmlns="http://www.w3.org/2000/svg">
<path opacity="0.5" d="M19.9997 36.6667C29.2043 36.6667 36.6663 29.2047 36.6663 20C36.6663 19.2289 35.5105 19.1014 35.1117 19.7614C33.2145 22.901 29.7688 25 25.833 25C19.8498 25 14.9997 20.1499 14.9997 14.1667C14.9997 10.2308 17.0987 6.78512 20.2383 4.88797C20.8983 4.48916 20.7708 3.33337 19.9997 3.33337C10.7949 3.33337 3.33301 10.7953 3.33301 20C3.33301 29.2047 10.7949 36.6667 19.9997 36.6667Z" fill="#CC1100"/>
<path d="M18.8092 36.6667C22.2282 36.6667 24.9997 34.033 24.9997 30.7843C24.9997 28.2095 23.2587 26.021 20.8343 25.224C20.4898 22.2852 17.8668 20 14.6822 20C11.2633 20 8.49174 22.6337 8.49174 25.8823C8.49174 26.6008 8.62732 27.2893 8.87551 27.9258C8.58446 27.8717 8.28366 27.8432 7.97586 27.8432C5.41169 27.8432 3.33301 29.8183 3.33301 32.2548C3.33301 34.6915 5.41169 36.6667 7.97586 36.6667H18.8092Z" fill="#CC1100"/>
</svg>
